<svg id="Layer_1" data-name="Layer 1" xmlns="http://www.w3.org/2000/svg" xmlns:xlink="http://www.w3.org/1999/xlink" viewBox="0 0 399.06 104.07"><defs><style>.cls-1{fill:none;}.cls-2{fill:#fff;}.cls-3{fill:#dbdfe4;}.cls-4{fill:#a3acb7;}.cls-5{fill:#c6d76b;}.cls-6{clip-path:url(#clip-path);}.cls-7{fill:url(#linear-gradient);}.cls-8{fill:#13a538;}.cls-9{fill:#4e5b61;}</style><clipPath id="clip-path" transform="translate(-98.67 -373.12)"><path class="cls-1" d="M155,412.46c-12.81,4.82-23.48,9.63-52.9-2-2.17,8.56-3.39,17.29-.43,29,28,9.1,44.08,4.45,59.28-.2,12.63-3.86,24.68-7.73,42.49-3.71a61.35,61.35,0,0,0-1.59-26,105.55,105.55,0,0,0-20.9-2.34c-11.47,0-19,2.6-25.95,5.21"/></clipPath><linearGradient id="linear-gradient" y1="840.05" x2="1" y2="840.05" gradientTransform="matrix(108.3, 0, 0, -108.3, 0.64, 91035.75)" gradientUnits="userSpaceOnUse"><stop offset="0" stop-color="#009640"/><stop offset="1" stop-color="#afca0b"/></linearGradient></defs><title>SotTLogo</title><path class="cls-2" d="M152.08,477.19a52,52,0,1,0-52-52,52,52,0,0,0,52,52" transform="translate(-98.67 -373.12)"/><path class="cls-3" d="M184.81,384.14c2.24,2.13-3,7.55-15.27,6.1s-27.26-13.07-37.09-3.24c13.74-8.72,23.29-14.24,29.55-11.67s17.63,7.16,17.18,5.48c1.06.53,5.63,3.33,5.63,3.33" transform="translate(-98.67 -373.12)"/><path class="cls-4" d="M115.69,388.18c23.61,19.38,47.88-17.55,69.3-3.9-19.2-14.9-49.59-16.11-69.3,3.9" transform="translate(-98.67 -373.12)"/><path class="cls-5" d="M102.06,410.55c46.31-10.68,77.39,25.11,100.34,2.75.14,4,0,12.52,1,22.33-14.41,8.2-35.42,11-52.6,1.85-12-7-45.74-17.92-48.74-26.93" transform="translate(-98.67 -373.12)"/><g class="cls-6"><rect class="cls-7" y="34.13" width="106.26" height="41.31"/></g><path class="cls-3" d="M119.76,466.15c-2.24-2.12,3-7.54,15.28-6.09s27.25,13.07,37.09,3.24C158.38,472,148.84,477.54,142.58,475s-17.63-7.16-17.18-5.48c-1.06-.53-5.64-3.34-5.64-3.34" transform="translate(-98.67 -373.12)"/><path class="cls-4" d="M188.89,462.12c-23.62-19.38-47.88,17.56-69.31,3.9,19.21,14.9,49.59,16.12,69.31-3.9" transform="translate(-98.67 -373.12)"/><path class="cls-8" d="M496.36,438.57c-.37-3-.61-4.86-.8-6.51a19.72,19.72,0,0,0-5.94-1.08c-6.08,0-9.71,3.87-9.71,8.39,0,5.33,4.76,7.64,7.78,9.29,3.54,1.89,6.13,3.54,6.13,7s-2.08,5.66-5.66,5.66c-4.9,0-7-4.76-7.73-7.63L479,454c.33,2.26.95,6.31,1.28,7.3a13.7,13.7,0,0,0,2.35,1,16.18,16.18,0,0,0,4.62.71c6.28,0,10.47-4,10.47-8.91,0-5.33-4.43-7.5-8.16-9.43s-6-3.54-6-7a4.91,4.91,0,0,1,5.23-5.14c4.1,0,5.38,3.26,6.18,6.23Zm-20.74,15.51c-2.36,4.67-4.9,7.26-9.71,7.26-7.17,0-12.36-6-12.36-14.85,0-7.17,4.2-13.81,12.07-13.81,5.1,0,7.92,2,9.2,7l1.37-.38c-.29-2.49-.57-4.43-.95-7.07A37.57,37.57,0,0,0,466.9,431c-10.52,0-18.16,6.51-18.16,16.45,0,7.5,5.14,15.61,16.88,15.61a43,43,0,0,0,8.68-1.23,53.07,53.07,0,0,0,2.69-7.26Zm-27.35,8.25V461c-3.86-.28-4.24-.52-4.24-4.57V437.58c0-4,.38-4.29,4.24-4.57v-1.32H435.78V433c3.87.28,4.24.56,4.24,4.57v18.86c0,4-.37,4.29-4.24,4.57v1.32ZM419.56,436c0-1.37.14-1.94.52-2.22a4.42,4.42,0,0,1,2.64-.56c3.87,0,7.12,2.16,7.12,7.26,0,6-3.77,7.64-6.84,7.64a10.08,10.08,0,0,1-3.44-.57Zm-7.83-4.29V433c3.49.23,3.87.42,3.87,4.57v18.86c0,3.91-.38,4.29-4.15,4.57v1.32h12.78V461c-4.25-.28-4.67-.52-4.67-4.52v-7.4l3.49.89a10.28,10.28,0,0,0,2.12-.05c4.62-.56,9.2-3.53,9.2-9.66a7.93,7.93,0,0,0-3-6.65c-1.89-1.37-4.62-1.93-8-1.93Zm-17.21,1c6.23,0,11.41,5.28,11.41,15.23,0,9-4.66,13.43-9.94,13.43-6.65,0-11.51-6.46-11.51-15.32s4.81-13.34,10-13.34m1-1.7c-9.95,0-15.89,7.87-15.89,16.36,0,9.1,6.79,15.7,15.33,15.7s15.74-6.22,15.74-16.41A15.16,15.16,0,0,0,395.56,431m-34,16.45V435.79c0-1.32.14-1.84.52-2.08a4.67,4.67,0,0,1,2.55-.47c3.53,0,6.88,1.89,6.88,7a6.77,6.77,0,0,1-2.59,5.85c-1.18,1-2.74,1.36-5.1,1.36Zm19.76,14.05a6.53,6.53,0,0,1-3.4-2.21,37,37,0,0,1-3.82-4.9c-1.41-2.13-3.39-5.28-4.19-6.79,3.44-1.56,6-4.06,6-8.11a7,7,0,0,0-3.15-6.18c-1.75-1.18-4.06-1.6-7.5-1.6H353.51V433c3.67.33,4.05.47,4.05,4.48v18.95c0,4-.38,4.29-4.24,4.57v1.32h12.35V461c-3.72-.28-4.15-.56-4.15-4.57v-7.5H363c2.4,0,3.21.57,4,1.89,1.41,2.31,3.11,5.23,4.76,7.54,2.12,3.07,4.05,4.1,7.64,4.29.52,0,1.08,0,1.65,0Zm-29-22.63c-.28-2.73-.47-6.17-.52-8.34h-1a2.39,2.39,0,0,1-2.35,1.18H329.74c-1.32,0-1.93-.1-2.59-1.18h-.94c-.1,2.59-.33,5.66-.57,8.48H327a15,15,0,0,1,1.51-4.24c.61-1,1.55-1.46,5.47-1.46h2.92v23.24c0,3.73-.38,4.2-4.67,4.48v1.32h13.49V461c-4.43-.28-4.81-.75-4.81-4.48V433.29h3.3c3.58,0,4.34.38,5.14,1.51a11.49,11.49,0,0,1,1.46,4.19Z" transform="translate(-98.67 -373.12)"/><path class="cls-9" d="M315.93,454.7a15.56,15.56,0,0,1-2.36,4.43c-1,1.22-2.36,1.6-5.94,1.6-2.35,0-4,0-4.9-.61s-1.13-1.6-1.13-3.82v-8.91h4.48c4.1,0,4.43.28,5,3.63h1.37v-9h-1.37c-.57,3.16-.8,3.54-5.09,3.54H301.6V434.8c0-1.37.09-1.51,1.55-1.51h3.59c3.39,0,4.66.33,5.32,1.37a11.2,11.2,0,0,1,1.51,4l1.37-.18c-.14-2.41-.38-5.61-.38-6.79h-21V433c3.67.28,4,.47,4,4.67v18.76c0,3.87-.38,4.24-4.67,4.57v1.32h22.73c.42-1.46,1.36-5.89,1.65-7.45Zm-24.23-23H279.39V433c3.68.33,4.06.56,4.06,4.48v7.63H267.37v-7.63c0-3.92.38-4.2,4-4.48v-1.32H259.12V433c3.86.28,4.24.52,4.24,4.48v19c0,4-.38,4.2-4.15,4.48v1.32h12.4V461c-3.86-.28-4.24-.56-4.24-4.48v-9.38h16.08v9.38c0,4-.38,4.2-4.44,4.48v1.32h12.64V461c-3.82-.28-4.2-.52-4.2-4.48v-19c0-3.92.38-4.15,4.25-4.48ZM258,438.85c-.28-2.73-.47-6.17-.52-8.34h-1a2.39,2.39,0,0,1-2.35,1.18H235.54c-1.32,0-1.93-.1-2.59-1.18H232c-.1,2.59-.33,5.66-.57,8.48h1.37a15,15,0,0,1,1.51-4.24c.61-1,1.55-1.46,5.47-1.46h2.92v23.24c0,3.73-.38,4.2-4.67,4.48v1.32h13.49V461c-4.43-.28-4.81-.75-4.81-4.48V433.29H250c3.58,0,4.33.38,5.14,1.51a11.49,11.49,0,0,1,1.46,4.19Z" transform="translate(-98.67 -373.12)"/><path class="cls-9" d="M414.75,398.54c-.19-2.26-.42-5.23-.47-6.93H393.54v1.32c3.63.28,4,.52,4,4.57v18.82c0,4.05-.37,4.33-4.15,4.62v1.32h12.83v-1.32c-4.29-.29-4.67-.57-4.67-4.62v-8.54h4.86c4.29,0,4.52.52,5.09,3.77h1.37v-9.1H411.5c-.57,3.07-.8,3.49-5.09,3.49h-4.86V394.72c0-1.36.14-1.51,1.56-1.51h3.58c3.58,0,4.57.43,5.38,1.75a10.64,10.64,0,0,1,1.31,3.77Zm-38.28-5.94c6.22,0,11.41,5.28,11.41,15.23,0,9.05-4.67,13.44-9.95,13.44-6.65,0-11.51-6.46-11.51-15.33s4.81-13.34,10.05-13.34m1-1.7c-9.94,0-15.88,7.88-15.88,16.36,0,9.1,6.79,15.7,15.32,15.7s15.75-6.22,15.75-16.4A15.17,15.17,0,0,0,377.5,390.9m-26.35,23.72a15.28,15.28,0,0,1-2.36,4.43c-1,1.23-2.35,1.6-5.94,1.6-2.35,0-4,0-4.9-.61s-1.13-1.6-1.13-3.82v-8.91h4.48c4.1,0,4.43.28,5,3.63h1.37v-9h-1.37c-.56,3.16-.8,3.53-5.09,3.53h-4.43V394.72c0-1.36.09-1.51,1.55-1.51H342c3.39,0,4.66.33,5.32,1.37a11.27,11.27,0,0,1,1.51,4l1.37-.19c-.14-2.4-.38-5.61-.38-6.79h-21v1.32c3.68.28,4.06.47,4.06,4.67v18.76c0,3.87-.38,4.25-4.67,4.58v1.32h22.73c.42-1.46,1.37-5.9,1.65-7.45Zm-23.67-15.84c-.28-2.74-.47-6.18-.52-8.35h-1a2.37,2.37,0,0,1-2.35,1.18H305c-1.32,0-1.93-.09-2.59-1.18h-.94c-.1,2.6-.33,5.66-.57,8.49h1.37a14.86,14.86,0,0,1,1.51-4.24c.61-1,1.55-1.47,5.47-1.47h2.92v23.25c0,3.72-.38,4.19-4.67,4.48v1.32H321v-1.32c-4.44-.29-4.81-.76-4.81-4.48V393.21h3.3c3.58,0,4.33.38,5.14,1.51a11.84,11.84,0,0,1,1.46,4.2Zm-34.84,10.28H284c1.47-3.87,2.93-8,4.44-12h.09Zm12,13.2v-1.32c-3.06-.29-3.72-.71-5.18-4.76-3-8.21-6.18-17.21-9.1-25.28l-1.47.43L279.16,416c-1.61,4.2-2.27,4.48-5.28,4.91v1.32h10.27v-1.32c-3.58-.33-4-.8-3-3.77.62-2,1.32-4,2.08-6.09h10c1,2.88,2,5.43,2.59,7.26s.19,2.22-2.78,2.6v1.32ZM278,398.78c-.28-2.74-.47-6.18-.51-8.35h-1a2.4,2.4,0,0,1-2.36,1.18H255.53c-1.32,0-1.93-.09-2.59-1.18H252c-.1,2.6-.33,5.66-.57,8.49h1.37a15.18,15.18,0,0,1,1.51-4.24c.61-1,1.56-1.47,5.47-1.47h2.92v23.25c0,3.72-.38,4.19-4.67,4.48v1.32h13.49v-1.32c-4.43-.29-4.81-.76-4.81-4.48V393.21H270c3.58,0,4.34.38,5.14,1.51a11.64,11.64,0,0,1,1.46,4.2Zm-28.61-.28c-.38-3-.62-4.86-.81-6.51a19.42,19.42,0,0,0-5.94-1.09c-6.08,0-9.71,3.87-9.71,8.4,0,5.32,4.76,7.63,7.78,9.28,3.54,1.89,6.13,3.54,6.13,7s-2.08,5.66-5.66,5.66c-4.9,0-7-4.76-7.73-7.64l-1.42.33c.34,2.26.95,6.32,1.28,7.31a15.34,15.34,0,0,0,2.36,1,16.11,16.11,0,0,0,4.62.7c6.27,0,10.46-4,10.46-8.91,0-5.32-4.43-7.49-8.15-9.43s-6-3.53-6-7a4.91,4.91,0,0,1,5.23-5.14c4.1,0,5.38,3.25,6.18,6.22Z" transform="translate(-98.67 -373.12)"/></svg>