<?xml version="1.0" encoding="UTF-8" ?>
<svg
   xmlns:dc="http://purl.org/dc/elements/1.1/"
   xmlns:rdf="http://www.w3.org/1999/02/22-rdf-syntax-ns#"
   xmlns:svg="http://www.w3.org/2000/svg"
   xmlns="http://www.w3.org/2000/svg"
   version="1.0"
   width="600"
   height="400"
   viewBox="0 0 600 400">

  <rect width="600" height="70" x="0" y="0" fill="#009966" />
  <rect width="600" height="20" x="0" y="70" fill="#000000" />
  <rect width="600" height="220" x="0" y="90" fill="#000099" />
  <rect width="600" height="20" x="0" y="310" fill="#000000" />
  <rect width="600" height="70" x="0" y="330" fill="#009966" />
  <path
  d="M 290,95 C 190,125 195,200 227,269 L 189,305 L 258,280 L 258,188 C 280,155 320,155 342,188 L 342,280 L 411,305 L 373,269 C 405,200 410,125 310,95 L 300,138 L 290,95 z " fill="#ffffff" />
  <path
  d="M 147.70136,41.916072 L 141.06587,46.262758 L 143.0885,53.932988 L 136.90408,48.965456 L 130.23428,53.259327 L 133.04759,45.842538 L 126.9028,40.826065 L 134.82595,41.209769 L 137.69805,33.815548 L 139.78151,41.469479 L 147.70136,41.916072 z "
  transform="matrix(3.6439588,-0.1980871,0.1934751,3.8308938,-208.3274,65.732436)" fill="#ffffff" />
</svg>
